# xmcd CD database file generated by OrangeCD 5.2
#
# Track frame offsets:
#	150
#	21235
#	44800
#	73000
#	99255
#	129290
#	145250
#	167637
#	184282
#	201362
#	218077
#
# Disc length: 3215 seconds
#
# Revision: 5
# Processed by: cddbd v1.5.1PL0 Copyright (c) Steve Scherf et al.
# Submitted via: OrangeCD 5.2
#
DISCID=a40c8d0b
DTITLE=Big Town Playboys - Off The Clock [CD2]
DYEAR=1997
DGENRE=Blues
TTITLE0=Hey Mama, Keep Your Big Mouth Shut
TTITLE1=Companion Blues
TTITLE2=Poor Boy
TTITLE3=My Girl Josephine
TTITLE4=Gin House
TTITLE5=You Better Believe It
TTITLE6=Red Hot Mama
TTITLE7=She's Touch
TTITLE8=Girls All Over The World
TTITLE9=I'm Mad
TTITLE10=Jam Up
EXTD=
EXTT0=
EXTT1=
EXTT2=
EXTT3=
EXTT4=
EXTT5=
EXTT6=
EXTT7=
EXTT8=
EXTT9=
EXTT10=
PLAYORDER=
